# xmcd
#
# Track frame offsets:
#	183
#	12090
#	23065
#	38248
#	51148
#	61278
#	73593
#	85078
#	101313
#	113450
#	127050
#	141460
#	153845
#	167683
#	183225
#	196018
#	207710
#	221965
#
# Disc length: 3163 seconds
#
# Revision: 1
# Processed by: cddbd v1.5.2PL0 Copyright (c) Steve Scherf et al.
# Submitted via: audiograbber 1.83.01
#
DISCID=f70c5912
DTITLE=Sampler Blues - An early Chess blues anthology CD2
DYEAR=1953
DGENRE=Blues
TTITLE0=Shoe Shine Johnny Shines - Joliet blues
TTITLE1=Shoe Shine Johnny Shines - So glad I found you
TTITLE2=Jones, Floyd - Dark road
TTITLE3=Jones, Floyd - Big world
TTITLE4=Jones, Floyd - Overseas
TTITLE5=Jones, Floyd - Playhouse
TTITLE6=Doctor Ross - Country clown
TTITLE7=Big Boy Spires - One of these days
TTITLE8=Big Boy Spires - Murmur low
TTITLE9=Crudup, Arthur 'Big Boy' - Tears
TTITLE10=Woodrow Adams - Pretty baby
TTITLE11=Blue Smitty - Crying
TTITLE12=Blue Smitty - Sad story
TTITLE13=Blue Smitty - Elgin movements
TTITLE14=Jones, Floyd - You can't live long
TTITLE15=Honeyboy Edwards - Drop down mama
TTITLE16=Jenkins, Gus - Eight ball
TTITLE17=Little Henry - Matchbox blues
EXTD=
EXTT0=
EXTT1=
EXTT2=
EXTT3=
EXTT4=
EXTT5=
EXTT6=
EXTT7=
EXTT8=
EXTT9=
EXTT10=
EXTT11=
EXTT12=
EXTT13=
EXTT14=
EXTT15=
EXTT16=
EXTT17=
PLAYORDER=
